<svg xmlns="http://www.w3.org/2000/svg" version="1.1" xmlns:xlink="http://www.w3.org/1999/xlink" xmlns:svgjs="http://svgjs.dev/svgjs" width="1000" height="1000" viewBox="0 0 1000 1000"><rect width="1000" height="1000" fill="#000000"></rect><g transform="matrix(0.7,0,0,0.7,149.57575757575756,282.1265587044535)"><svg viewBox="0 0 396 247" data-background-color="#ffffff" preserveAspectRatio="xMidYMid meet" height="623" width="1000" xmlns="http://www.w3.org/2000/svg" xmlns:xlink="http://www.w3.org/1999/xlink"><defs></defs><g id="tight-bounds" transform="matrix(1,0,0,1,0.2400000000000091,-0.09999999999999432)"><svg viewBox="0 0 395.52 247.2" height="247.2" width="395.52"><g><svg></svg></g><g><svg viewBox="0 0 395.52 247.2" height="247.2" width="395.52"><g><path d="M147.37 164.768c-1.225 24.128-8.008 42.594-20.347 55.398-12.297 12.804-29.706 19.205-52.228 19.205-22.565 0-40.502-8.599-53.813-25.797-11.857-15.283-18.433-35.428-19.728-60.436l28.544 0c0.872 18.636 4.652 33.246 11.34 43.829 7.691 12.17 18.91 18.255 33.657 18.255 14.747 0 25.375-3.655 31.882-10.966 6.507-7.353 10.543-20.515 12.106-39.488zM21.489 33.373c13.691-17.029 32.347-25.544 55.968-25.544 21.762 0 38.601 6.529 50.517 19.586 11.916 13.057 18.381 31.713 19.396 55.968h-28.587c-1.268-18.381-5.134-31.481-11.599-39.298-6.507-7.86-16.416-11.789-29.727-11.79-15.381 0-27.192 6.021-35.432 18.065-7.163 10.379-11.229 24.947-12.196 43.702l-28.597 0c1.258-25.18 8.01-45.409 20.257-60.689zM200.802 10.935l15.062 83.127-26.909 0-16.485-83.127zM228.755 165.212l2.979 25.227 4.5-22.248 3.452-15.053 22.942 0-19.739 83.127h-25.733l-16.486-83.127h25.897zM272.3 10.935h23.642l18.495 83.127-22.911 0-5.028-21.962-2.282-13.31-2.345 13.31-5.215 21.962-23.421 0zM330.93 168.191l4.5 22.881 3.233-25.987 2.132-11.947 25.389 0-16.556 83.127h-25.543l-19.033-83.127 22.529 0zM366.172 10.935h28.332l-16.555 83.127-26.612 0z" fill="#ecab55" data-fill-palette-color="tertiary"></path></g><g transform="matrix(1,0,0,1,0,100.73509853929978)"><svg viewBox="0 0 395.52 45.72980292140041" height="45.72980292140041" width="395.52"><g><svg viewBox="0 0 395.52 45.72980292140041" height="45.72980292140041" width="395.52"><g><svg viewBox="0 0 395.52 45.72980292140041" height="45.72980292140041" width="395.52"><g><svg viewBox="0 0 395.52 45.72980292140041" height="45.72980292140041" width="395.52"><g><svg viewBox="0 0 395.52 45.72980292140041" height="45.72980292140041" width="395.52"><g><svg viewBox="0 0 395.52 45.72980292140041" height="45.72980292140041" width="395.52"><g transform="matrix(1,0,0,1,0,0)"><svg width="395.52" viewBox="3.0299999713897705 -36.040000915527344 315.8600158691406 36.53000259399414" height="45.72980292140041" data-palette-color="#ecab55"><path d="M21.61-11.28L26.12-11.28Q25.83-5.57 22.91-2.54 20 0.49 14.67 0.49L14.67 0.49Q9.33 0.49 6.18-3.58 3.03-7.64 3.03-14.6L3.03-14.6 3.03-21.04Q3.03-27.98 6.26-32.01 9.5-36.04 15.09-36.04L15.09-36.04Q20.24-36.04 23.06-32.95 25.88-29.86 26.12-24.12L26.12-24.12 21.61-24.12Q21.31-28.47 19.78-30.32 18.24-32.18 15.09-32.18L15.09-32.18Q11.45-32.18 9.5-29.33 7.54-26.49 7.54-21L7.54-21 7.54-14.48Q7.54-9.08 9.36-6.2 11.18-3.32 14.67-3.32 18.16-3.32 19.7-5.05 21.24-6.79 21.61-11.28L21.61-11.28ZM36.84-35.55L36.84 0 32.37 0 32.37-35.55 36.84-35.55ZM67.89-35.55L67.89 0 63.4 0 49.16-27.39 49.16 0 44.67 0 44.67-35.55 49.16-35.55 63.45-8.03 63.45-35.55 67.89-35.55ZM92.67-20.26L92.67-16.43 80.1-16.43 80.1-3.83 94.74-3.83 94.74 0 75.63 0 75.63-35.55 94.5-35.55 94.5-31.69 80.1-31.69 80.1-20.26 92.67-20.26ZM100.45-35.55L106.22-35.55 115.49-6.54 124.77-35.55 130.53-35.55 130.53 0 126.06 0 126.06-13.84 126.48-27.71 117.18 0 113.76 0 104.51-27.61 104.92-13.84 104.92 0 100.45 0 100.45-35.55ZM158.04 0L155.24-9.28 143.22-9.28 140.47 0 135.88 0 147.33-35.55 151.16-35.55 162.63 0 158.04 0ZM149.23-29.3L144.4-13.13 154.09-13.13 149.23-29.3ZM181.28-35.55L185.7-11.21 186.16-7.23 186.87-10.74 192.56-35.55 196.3-35.55 201.81-10.74 202.52-7.13 203.03-11.23 207.38-35.55 211.85-35.55 204.77 0 200.74 0 194.81-25.9 194.44-28 194.07-25.9 187.92 0 183.87 0 176.81-35.55 181.28-35.55ZM240.12-21.12L240.12-14.65Q240.12-7.37 237.02-3.44 233.92 0.49 228.2 0.49L228.2 0.49Q222.71 0.49 219.52-3.33 216.34-7.15 216.22-14.14L216.22-14.14 216.22-20.83Q216.22-27.95 219.36-31.99 222.51-36.04 228.15-36.04L228.15-36.04Q233.77-36.04 236.91-32.17 240.04-28.3 240.12-21.12L240.12-21.12ZM235.65-14.21L235.65-20.87Q235.65-26.51 233.81-29.26 231.96-32.01 228.15-32.01L228.15-32.01Q224.47-32.01 222.58-29.22 220.68-26.44 220.66-21.02L220.66-21.02 220.66-14.65Q220.66-9.2 222.55-6.35 224.44-3.49 228.2-3.49 231.96-3.49 233.77-6.13 235.58-8.76 235.65-14.21L235.65-14.21ZM264.09 0L257.77-14.38 251.52-14.38 251.52 0 247.02 0 247.02-35.55 256.98-35.55Q262.21-35.55 264.89-32.82 267.58-30.1 267.58-24.85L267.58-24.85Q267.58-21.56 266.13-19.1 264.67-16.65 262.01-15.41L262.01-15.41 268.9-0.29 268.9 0 264.09 0ZM251.52-31.69L251.52-18.21 256.94-18.21Q259.74-18.21 261.42-20.02 263.09-21.83 263.09-24.85L263.09-24.85Q263.09-31.69 256.89-31.69L256.89-31.69 251.52-31.69ZM278.05-35.55L278.05-3.83 291.99-3.83 291.99 0 273.56 0 273.56-35.55 278.05-35.55ZM305.27 0L297.31 0 297.31-35.55 305.78-35.55Q312.01-35.55 315.45-31.65 318.89-27.76 318.89-20.7L318.89-20.7 318.89-14.75Q318.89-7.69 315.4-3.85 311.91 0 305.27 0L305.27 0ZM305.78-31.69L301.78-31.69 301.78-3.83 305.37-3.83Q310.08-3.83 312.25-6.53 314.43-9.23 314.47-14.53L314.47-14.53 314.47-20.83Q314.47-26.44 312.31-29.06 310.15-31.69 305.78-31.69L305.78-31.69Z" opacity="1" transform="matrix(1,0,0,1,0,0)" fill="#ffffff" class="undefined-text-0" data-fill-palette-color="primary" id="text-0"></path></svg></g></svg></g></svg></g></svg></g></svg></g></svg></g></svg></g></svg></g></svg><rect width="395.52" height="247.2" fill="none" stroke="none" visibility="hidden"></rect></g></svg></g></svg>